<?xml version="1.0" encoding="UTF-8" standalone="no"?> <!-- Created with Vectornator for iOS (http://vectornator.io/) --><!DOCTYPE svg PUBLIC "-//W3C//DTD SVG 1.1//EN" "http://www.w3.org/Graphics/SVG/1.1/DTD/svg11.dtd">
<svg height="100%" style="fill-rule:nonzero;clip-rule:evenodd;stroke-linecap:round;stroke-linejoin:round;" xmlns:xlink="http://www.w3.org/1999/xlink" xmlns="http://www.w3.org/2000/svg" xml:space="preserve" width="100%" xmlns:vectornator="http://vectornator.io" version="1.1" viewBox="0 0 260 160">
<metadata>
<vectornator:setting key="DimensionsVisible" value="1"/>
<vectornator:setting key="PencilOnly" value="0"/>
<vectornator:setting key="SnapToPoints" value="0"/>
<vectornator:setting key="OutlineMode" value="0"/>
<vectornator:setting key="CMYKEnabledKey" value="0"/>
<vectornator:setting key="RulersVisible" value="1"/>
<vectornator:setting key="SnapToEdges" value="0"/>
<vectornator:setting key="GuidesVisible" value="1"/>
<vectornator:setting key="DisplayWhiteBackground" value="0"/>
<vectornator:setting key="doHistoryDisabled" value="0"/>
<vectornator:setting key="SnapToGuides" value="1"/>
<vectornator:setting key="TimeLapseWatermarkDisabled" value="0"/>
<vectornator:setting key="Units" value="Pixels"/>
<vectornator:setting key="DynamicGuides" value="0"/>
<vectornator:setting key="IsolateActiveLayer" value="0"/>
<vectornator:setting key="SnapToGrid" value="0"/>
</metadata>
<defs/>
<g id="Layer 1" vectornator:layerName="Layer 1">
<path stroke="#4c65af" stroke-width="5" d="M167.423+76.8581L185.623+76.8581" fill="none" stroke-linecap="butt" opacity="1" stroke-linejoin="miter"/>
<path d="M183.423+84.3581L196.323+76.8581L183.423+69.3581L183.423+84.3581Z" opacity="1" fill="#4c65af"/>
<path stroke="#4c65af" stroke-width="5" d="M74.2234+45.6581L106.223+59.8581" fill="none" stroke-linecap="butt" opacity="1" stroke-linejoin="miter"/>
<path d="M101.223+65.7581L116.123+64.1581L107.323+52.0581L101.223+65.7581Z" opacity="1" fill="#4c65af"/>
<path stroke="#4c65af" stroke-width="5" d="M74.2234+115.058L106.923+95.2581" fill="none" stroke-linecap="butt" opacity="1" stroke-linejoin="miter"/>
<path d="M108.923+102.758L116.123+89.6581L101.223+89.9581L108.923+102.758Z" opacity="1" fill="#4c65af"/>
<path stroke="#399846" stroke-width="1" d="M25.2234+29.4581C25.2234+14.4359+37.4012+2.25808+52.4234+2.25808C67.4455+2.25808+79.6234+14.4359+79.6234+29.4581C79.6234+44.4802+67.4455+56.6581+52.4234+56.6581C37.4012+56.6581+25.2234+44.4802+25.2234+29.4581Z" fill="#399846" stroke-linecap="butt" opacity="1" stroke-linejoin="miter"/>
<path d="M57.3234+27.0581L57.5234+22.7581L57.3234+22.7581L52.8234+30.0581L51.8234+30.0581L47.2234+22.7581L47.0234+22.7581L47.2234+26.6581L47.2234+42.0581L42.0234+42.0581L42.0234+14.0581L47.6234+14.0581L52.4234+21.8581L52.5234+21.8581L57.3234+14.0581L62.8234+14.0581L62.8234+42.0581L57.3234+42.0581C57.3234+42.0581+57.3234+27.0581+57.3234+27.0581Z" opacity="1" fill="#ffffff"/>
<path stroke="#cb3c33" stroke-width="1" d="M25.2234+131.258C25.2234+116.236+37.4012+104.058+52.4234+104.058C67.4455+104.058+79.6234+116.236+79.6234+131.258C79.6234+146.28+67.4455+158.458+52.4234+158.458C37.4012+158.458+25.2234+146.28+25.2234+131.258Z" fill="#cb3c33" stroke-linecap="butt" opacity="1" stroke-linejoin="miter"/>
<path d="M57.0234+132.058L62.0234+132.058L62.0234+143.458L43.5234+143.458L43.5234+115.458L49.0234+115.458L49.0234+138.558L57.0234+138.558L57.0234+132.058Z" opacity="1" fill="#ffffff"/>
<path stroke="#925aa4" stroke-width="1" d="M113.023+76.8581C113.023+61.8359+125.201+49.6581+140.223+49.6581C155.246+49.6581+167.423+61.8359+167.423+76.8581C167.423+91.8802+155.246+104.058+140.223+104.058C125.201+104.058+113.023+91.8802+113.023+76.8581Z" fill="#925aa5" stroke-linecap="butt" opacity="1" stroke-linejoin="miter"/>
<path d="M131.823+61.9581L148.523+61.9581L148.523+79.7581C148.523+81.2581+148.323+82.6581+147.923+84.0581C147.523+85.3581+146.823+86.5581+145.823+87.6581C145.223+88.2581+144.523+88.7581+143.723+89.1581C143.023+89.5581+142.323+89.8581+141.623+89.9581C140.923+90.0581+140.323+90.2581+139.623+90.3581C139.023+90.4581+138.523+90.4581+138.123+90.4581C136.823+90.4581+135.623+90.3581+134.423+90.0581C133.223+89.7581+132.023+89.2581+130.823+88.5581L132.823+84.1581C133.823+84.7581+134.723+85.1581+135.423+85.3581C136.123+85.5581+137.023+85.6581+137.923+85.6581C138.523+85.6581+139.123+85.5581+139.823+85.3581C140.523+85.1581+141.123+84.7581+141.623+84.2581C142.523+83.2581+143.023+81.8581+143.023+80.0581L143.023+66.7581L131.823+66.7581C131.823+66.7581+131.823+61.9581+131.823+61.9581Z" opacity="1" fill="#ffffff"/>
<path stroke="#4c65af" stroke-width="5" d="M1.02339+29.4581L14.4234+29.4581" fill="none" stroke-linecap="butt" opacity="1" stroke-linejoin="miter"/>
<path d="M12.2234+36.8581L25.2234+29.4581L12.2234+21.9581L12.2234+36.8581Z" opacity="1" fill="#4c65af"/>
<path stroke="#4c65af" stroke-width="5" d="M1.02339+131.258L14.4234+131.258" fill="none" stroke-linecap="butt" opacity="1" stroke-linejoin="miter"/>
<path d="M12.2234+138.758L25.2234+131.258L12.2234+123.858L12.2234+138.758Z" opacity="1" fill="#4c65af"/>
<path stroke="#925aa4" stroke-width="1" d="M196.767+76.9307C196.767+61.9086+208.945+49.7307+223.967+49.7307C238.989+49.7307+251.167+61.9086+251.167+76.9307C251.167+91.9529+238.989+104.131+223.967+104.131C208.945+104.131+196.767+91.9529+196.767+76.9307Z" fill="#4063d8" stroke-linecap="butt" opacity="1" stroke-linejoin="miter"/>
<g opacity="1">
<path d="M230.302+83.5186C230.302+81.684+229.743+80.2291+228.625+79.1541C227.507+78.0791+225.744+77.1833+223.336+76.4666C222.074+76.094+220.935+75.6998+219.917+75.2841C218.899+74.8685+218.025+74.3811+217.294+73.8221C216.563+73.2631+216.004+72.6038+215.617+71.8441C215.23+71.0845+215.037+70.1743+215.037+69.1136C215.037+68.1676+215.244+67.279+215.66+66.4476C216.076+65.6163+216.706+64.8781+217.552+64.2331C218.398+63.5881+219.444+63.0793+220.691+62.7066C221.938+62.334+223.379+62.1476+225.013+62.1476C226.073+62.1476+227.062+62.1906+227.98+62.2766C228.897+62.3626+229.692+62.4916+230.366+62.6636C231.04+62.8356+231.563+63.0291+231.936+63.2441C232.308+63.4591+232.495+63.6956+232.495+63.9536C232.495+64.5556+232.459+65.2723+232.387+66.1036C232.315+66.935+232.28+67.8093+232.28+68.7266C232.28+69.0993+232.301+69.4648+232.344+69.8231C232.387+70.1815+232.409+70.461+232.409+70.6616C232.409+70.9483+232.287+71.0845+232.043+71.0701C231.799+71.0558+231.678+70.9913+231.678+70.8766C231.678+70.7333+231.713+70.461+231.785+70.0596C231.857+69.6583+231.893+69.171+231.893+68.5976C231.893+67.2216+231.334+66.0535+230.216+65.0931C229.098+64.1328+227.464+63.6526+225.314+63.6526C224.224+63.6526+223.271+63.7888+222.454+64.0611C221.637+64.3335+220.949+64.6918+220.39+65.1361C219.831+65.5805+219.408+66.1036+219.122+66.7056C218.835+67.3076+218.692+67.924+218.692+68.5546C218.692+69.816+219.179+70.8408+220.154+71.6291C221.128+72.4175+222.762+73.17+225.056+73.8866C226.46+74.3453+227.722+74.8183+228.84+75.3056C229.958+75.793+230.889+76.3806+231.635+77.0686C232.38+77.7566+232.953+78.5665+233.355+79.4981C233.756+80.4298+233.957+81.555+233.957+82.8736C233.957+83.9916+233.691+85.081+233.161+86.1416C232.631+87.2023+231.871+88.1411+230.882+88.9581C229.893+89.7751+228.682+90.4345+227.249+90.9361C225.815+91.4378+224.196+91.6886+222.39+91.6886C221.214+91.6886+220.146+91.5883+219.186+91.3876C218.226+91.187+217.394+90.9576+216.692+90.6996C215.99+90.4416+215.445+90.1836+215.058+89.9256C214.671+89.6676+214.478+89.4956+214.478+89.4096C214.478+89.0083+214.535+88.3561+214.65+87.4531C214.764+86.5501+214.822+85.3533+214.822+83.8626C214.822+83.6333+214.814+83.3466+214.8+83.0026C214.786+82.6586+214.779+82.372+214.779+82.1426C214.779+81.9133+214.879+81.7986+215.08+81.7986C215.309+81.7986+215.452+81.8345+215.51+81.9061C215.567+81.9778+215.588+82.0996+215.574+82.2716C215.56+82.4436+215.524+82.6873+215.467+83.0026C215.409+83.318+215.381+83.705+215.381+84.1636C215.381+84.995+215.538+85.769+215.854+86.4856C216.169+87.2023+216.628+87.8258+217.23+88.3561C217.832+88.8865+218.563+89.3021+219.423+89.6031C220.283+89.9041+221.257+90.0546+222.347+90.0546C223.665+90.0546+224.819+89.8826+225.808+89.5386C226.797+89.1946+227.621+88.7288+228.281+88.1411C228.94+87.5535+229.442+86.8655+229.786+86.0771C230.13+85.2888+230.302+84.436+230.302+83.5186Z" opacity="1" fill="#f9f9f9"/>
</g>
</g>
</svg>
